# xmcd
#
# Track frame offsets:
#	150
#	11287
#	25837
#	41130
#	55707
#	66847
#	85452
#	96922
#	112745
#	124427
#
# Disc length: 1862
#
# Revision: 5
# Processed by: cddbd v1.5.1PL0 Copyright (c) Steve Scherf et al.
# Submitted via: Kscd 1.3.0
# Normalized: r3:TSWAP
#
DISCID=7d07440a
DTITLE=Vairous Artists - Red Hot Country
DYEAR=1900
DGENRE=Country
TTITLE0=Reba McEntire - Can't Even Get The Blues
TTITLE1=Pam Tillis - Don't Tell Me What To Do
TTITLE2=Mary Chapin Carpenter - Down At The Twist And Shout
TTITLE3=T. Graham Brown - Hell And High Water
TTITLE4=Rodney Crowell - Above And Beyond
TTITLE5=Don Williams - I Believe In You
TTITLE6=Ricky Van Shelton - Hole In My Pocket
TTITLE7=Waylon Jennings - Will The Wolf Survive
TTITLE8=Steve Earle - Guitar Town
TTITLE9=Southern Pacific - Reno Bound
EXTD=
EXTT0=
EXTT1=
EXTT2=
EXTT3=
EXTT4=
EXTT5=
EXTT6=
EXTT7=
EXTT8=
EXTT9=
PLAYORDER=
